<svg xmlns="http://www.w3.org/2000/svg" width="250" height="50" fill="none"><g clip-path="url(#A)"><g fill="#5965e0"><path d="M107.307 22.049l-3.622 16.633h-9.437l3.622-16.633c.284-1.307.119-1.548-1.218-1.548h-3.407c-1.329 0-1.607.241-1.888 1.515v.033l-3.622 16.633H78.29l3.625-16.633c.284-1.307.119-1.548-1.221-1.548h-3.407c-1.34 0-1.61.244-1.893 1.548l-3.625 16.633h-9.436l5.561-25.533h7.665l1.215 2.194a7.24 7.24 0 0 1 2.483-1.662 7.39 7.39 0 0 1 2.962-.531h1.956c3.691 0 6.18 1.565 7.072 4.21 1.649-2.942 4.04-4.21 6.927-4.21h1.959c5.544 0 8.363 3.493 7.174 8.9zm28.777 0l-1.684 7.734c-1.178 5.407-5.521 8.9-11.071 8.9h-7.148c-5.542 0-8.361-3.496-7.182-8.902l1.683-7.731c1.175-5.407 5.519-8.9 11.071-8.9h7.16c5.53 0 8.352 3.493 7.171 8.9zm-9.445 0c.284-1.307.119-1.548-1.218-1.548h-3.406c-1.34 0-1.61.244-1.894 1.548l-1.686 7.731c-.284 1.307-.117 1.548 1.22 1.548h3.407c1.337 0 1.61-.244 1.894-1.548l1.683-7.731zm68.336-2.033a6.65 6.65 0 0 1-2.368 3.684l-4.806 3.878a6.69 6.69 0 0 1-4.107 1.507h-6.655l-.15.684c-.284 1.307-.119 1.548 1.221 1.548h14.398l-1.601 7.354h-16.283c-5.542 0-8.361-3.496-7.183-8.902l1.684-7.731c1.178-5.407 5.521-8.9 11.071-8.9h7.165c5.528.011 8.386 3.321 7.614 6.878zm-9.885 2.033c.284-1.307.12-1.548-1.22-1.548h-3.407c-1.334-.003-1.618.244-1.902 1.548l-.568 2.662h5.621c.252-.01.494-.1.689-.257a1.13 1.13 0 0 0 .39-.61l.397-1.795z"/></g><path d="M205.583 34.347c-.522 2.396-2.461 4.338-5.393 4.338s-4.023-1.939-3.501-4.338 2.462-4.335 5.394-4.335 4.014 1.936 3.5 4.335z" fill="#4cd62b"/><g fill="#5965e0"><path d="M225.829 13.149l-1.601 7.349-3.974 18.182h-9.434l3.975-18.182h-4.71l1.604-7.351 14.14.003zm-7.006-4.767c-1.635-1.773-1.136-4.814 1.11-6.789s5.394-2.136 7.037-.36 1.136 4.817-1.11 6.792-5.399 2.136-7.037.357zm22.149 8.443L238.15 29.78c-.284 1.307-.119 1.548 1.218 1.548h5.868l-1.601 7.354h-7.747c-5.542 0-8.363-3.496-7.185-8.902l2.821-12.955h-3.568l1.601-7.354h3.577l1.312-6.022h9.444l-1.311 6.022h7.426l-1.61 7.354h-7.423zM25.509 3.745h11.974L27.522 50H15.547l9.961-46.255zm17.57 0h11.974l-7.761 36.242H35.315l7.764-36.242zm-35.315 0h11.974l-7.761 36.242H0L7.764 3.745zm163.263 9.404l-17.496 25.533h-9.652l-6.381-25.533h10.336l2.779 16.766 10.078-16.752 10.336-.014z"/></g></g><defs><clipPath id="A"><path fill="#fff" d="M0 0h250v50H0z"/></clipPath></defs></svg>
